<svg width="12" height="12" viewBox="0 0 12 12" fill="none" xmlns="http://www.w3.org/2000/svg">
<circle cx="6" cy="6" r="6" fill="#333333"/>
<path d="M8.27012 7.68711L6.6209 6.03789L8.27012 4.38867C8.43418 4.22461 8.43418 3.95586 8.27012 3.79102C8.10605 3.62695 7.8373 3.62695 7.67246 3.79102L6.02324 5.44023L4.37402 3.79102C4.20996 3.62695 3.94121 3.62695 3.77637 3.79102C3.6123 3.95508 3.6123 4.22383 3.77637 4.38867L5.42559 6.03789L3.77637 7.68711C3.6123 7.85117 3.6123 8.11992 3.77637 8.28477C3.94043 8.44883 4.20918 8.44883 4.37402 8.28477L6.02324 6.63555L7.67246 8.28477C7.83652 8.44883 8.10527 8.44883 8.27012 8.28477C8.43496 8.1207 8.43496 7.85195 8.27012 7.68711Z" fill="white"/>
</svg>
