<svg width="16" height="16" viewBox="0 0 16 16" fill="none" xmlns="http://www.w3.org/2000/svg">
<circle cx="8" cy="8" r="8" fill="#557BF6"/>
<path d="M12.9978 5.98509C12.9941 5.74149 12.9016 5.50761 12.7377 5.32737C12.6493 5.23016 12.5427 5.15132 12.4238 5.09534C12.305 5.03936 12.1763 5.00734 12.0451 5.00112C11.9138 4.9949 11.7827 5.01459 11.6591 5.05908C11.5355 5.10356 11.4218 5.17196 11.3247 5.26037L6.49767 9.64837L4.66967 7.98837L4.57167 7.91037C4.3635 7.76533 4.10797 7.70483 3.85686 7.74115C3.60574 7.77747 3.37783 7.90789 3.21928 8.10598C3.06073 8.30407 2.98341 8.55502 3.00298 8.80799C3.02255 9.06095 3.13755 9.29703 3.32467 9.46837L5.82467 11.7404L5.92467 11.8204C6.11063 11.9504 6.33527 12.0133 6.56169 11.9987C6.78812 11.9842 7.00287 11.8931 7.17067 11.7404L12.6707 6.74037L12.7577 6.65037C12.9161 6.46527 13.0014 6.2287 12.9978 5.98509Z" fill="white"/>
</svg>
