<svg width="21" height="21" viewBox="0 0 21 21" fill="none" xmlns="http://www.w3.org/2000/svg">
<path d="M7.90325 1.80286C8.36715 0.321007 9.17297 -0.311932 10.7626 0.147023L10.8026 0.160022C11.2675 0.303008 11.8024 0.574983 12.3043 1.03094C13.0941 1.75087 13.564 2.74878 13.564 4.00266C13.564 5.12255 13.499 5.81449 13.3091 6.59941L13.3031 6.62141H17.4152C19.9286 6.62141 20.9274 8.31726 20.2955 11.137L20.2415 11.368L20.1136 11.7899L19.6307 13.3628L19.4047 14.0817L19.1898 14.7536L18.7898 15.9635L18.5169 16.7515L18.3479 17.2214L18.114 17.8393L17.971 18.1963C17.2792 19.8662 15.8515 20.6331 13.9849 20.4131L4.91392 19.7382C4.85628 19.7351 4.79862 19.7325 4.74095 19.7302L4.38103 19.7222H3.36026L3.06732 19.7172L2.83337 19.7072L2.63842 19.6892L2.55144 19.6762L2.38447 19.6432L2.11453 19.5722C0.72384 19.1592 0 17.9803 0 16.3005V9.65612C0 7.53433 1.28772 6.32344 3.48123 6.32344L5.25684 6.32244L5.37881 6.22945C6.07291 5.65684 6.64797 4.95363 7.07144 4.15964L7.21441 3.87967C7.35737 3.5857 7.47435 3.27773 7.58532 2.91876L7.60332 2.85777L7.90325 1.80286Z" fill="#567BF6"/>
</svg>
